<?xml version="1.0" encoding="UTF-8" standalone="no"?>
<!DOCTYPE svg PUBLIC "-//W3C//DTD SVG 1.1//EN" "http://www.w3.org/Graphics/SVG/1.1/DTD/svg11.dtd">
<svg width="1429px" height="467px" version="1.1" xmlns="http://www.w3.org/2000/svg" xmlns:xlink="http://www.w3.org/1999/xlink" xml:space="preserve" xmlns:serif="http://www.serif.com/" style="fill-rule:evenodd;clip-rule:evenodd;stroke-linecap:round;stroke-linejoin:round;stroke-miterlimit:1.5;">
    <g transform="matrix(1,0,0,1,-959,-138)">
        <g transform="matrix(1,0,0,1,433.122,79.6742)">
            <g transform="matrix(1,0,0,0.939098,-82.2225,-4.47982)">
                <rect x="608.619" y="63.345" width="1427.52" height="502.13" style="fill:rgb(65,65,65);"/>
            </g>
            <g transform="matrix(1,0,0,1,24.7439,-865.859)">
                <g transform="matrix(0.872298,0,0,0.872298,737.886,-880.842)">
                    <rect x="299.793" y="2193.94" width="38.618" height="269.569" style="fill:white;fill-rule:nonzero;"/>
                    <g transform="matrix(1,0,0,1,-8.02478,0)">
                        <path d="M375.893,2463.51L375.893,2193.94L433.063,2193.94C455.275,2193.94 472.123,2200 483.607,2212.11C495.092,2224.23 500.834,2241.39 500.834,2263.6L500.834,2389.68C500.834,2414.92 494.713,2433.53 482.472,2445.52C470.23,2457.51 452.625,2463.51 429.656,2463.51L375.893,2463.51ZM414.512,2230.29L414.512,2427.16L432.306,2427.16C443.16,2427.16 450.858,2424.45 455.401,2419.02C459.944,2413.6 462.216,2405.08 462.216,2393.47L462.216,2263.6C462.216,2253 460.071,2244.8 455.78,2238.99C451.489,2233.19 443.664,2230.29 432.306,2230.29L414.512,2230.29Z" style="fill:white;fill-rule:nonzero;"/>
                    </g>
                    <g transform="matrix(1.1464,0,0,1.1464,-894.912,2012.9)">
                        <path d="M1268.52,155.938C1266.84,157.524 1265.27,159.216 1263.82,161.013C1258.56,167.231 1254.61,174.645 1251.98,183.254C1249.35,191.863 1248.03,200.951 1248.03,210.517C1248.03,226.539 1250.73,239.872 1256.11,250.514C1261.49,261.156 1272.07,269.705 1287.85,276.162L1314.04,286.924C1318.58,288.837 1322.23,290.631 1324.98,292.305C1327.73,293.979 1329.94,296.131 1331.62,298.762C1333.05,301.392 1334.01,304.86 1334.49,309.165C1334.96,313.469 1335.2,318.97 1335.2,325.666C1335.2,331.405 1335.02,336.607 1334.66,341.27C1334.31,345.933 1333.17,349.939 1331.26,353.287C1329.34,356.635 1326.65,359.206 1323.19,361C1319.72,362.793 1314.88,363.69 1308.66,363.69C1299.33,363.69 1292.69,361 1288.75,355.619C1284.8,350.238 1282.83,344.2 1282.83,337.503L1282.83,326.024L1246.24,326.024L1246.24,339.656C1246.24,348.265 1247.86,356.217 1251.08,363.511C1254.31,370.805 1258.68,377.202 1264.18,382.702C1269.35,387.874 1275.47,391.988 1282.55,395.046L1231.89,395.046L1231.89,155.938L1268.52,155.938ZM1424.21,156.311L1638.23,155.938L1638.23,395.046L1623.24,395.046L1623.24,264.902C1623.24,257.281 1622.12,250.838 1619.88,245.571C1617.63,240.304 1614.72,235.989 1611.14,232.627C1607.55,229.265 1603.52,226.856 1599.03,225.399C1594.55,223.942 1590.18,223.214 1585.92,223.214C1576.73,223.214 1569.56,224.895 1564.4,228.257C1559.25,231.619 1554.54,235.653 1550.29,240.36C1547.15,236.101 1543.11,232.179 1538.18,228.593C1533.25,225.007 1527.09,223.214 1519.69,223.214C1511.85,223.214 1505.4,224.951 1500.36,228.425C1495.32,231.899 1491,236.325 1487.42,241.705L1486.74,241.705L1486.74,225.231L1452.45,225.231L1452.45,395.046L1424.21,395.046L1424.21,225.231L1389.92,225.231L1389.92,395.046L1337.32,395.046C1337.69,394.881 1338.07,394.712 1338.43,394.54C1346.56,390.714 1353.14,385.452 1358.16,378.756C1362.94,372.299 1366.41,364.467 1368.56,355.26C1370.72,346.053 1371.79,336.069 1371.79,325.307C1371.79,315.98 1371.32,307.67 1370.36,300.376C1369.4,293.082 1367.61,286.565 1364.98,280.826C1362.11,275.325 1358.16,270.483 1353.14,266.298C1348.12,262.113 1341.54,258.466 1333.41,255.357L1305.43,244.236C1300.65,242.323 1296.88,240.41 1294.13,238.497C1291.38,236.584 1289.29,234.312 1287.85,231.681C1286.42,229.051 1285.52,226.061 1285.16,222.713C1284.8,219.365 1284.62,215.18 1284.62,210.158C1284.62,205.853 1284.98,201.728 1285.7,197.782C1286.42,193.836 1287.73,190.309 1289.65,187.2C1291.56,184.33 1294.07,181.939 1297.18,180.025C1300.29,178.112 1304.35,177.156 1309.38,177.156C1318.7,177.156 1325.34,180.205 1329.29,186.303C1333.23,192.401 1335.2,199.635 1335.2,208.006L1335.2,216.256L1371.79,216.256L1371.79,198.32C1371.79,183.493 1366.29,170.34 1355.29,158.861C1354.28,157.85 1353.24,156.875 1352.16,155.938L1389.92,156.311L1389.92,190.603L1424.21,190.603L1424.21,156.311ZM1486.74,395.046L1486.74,281.039C1486.74,273.419 1487.98,267.591 1490.44,263.557C1492.91,259.523 1497.39,257.506 1503.89,257.506C1509.27,257.506 1513.41,259.299 1516.33,262.885C1519.24,266.471 1520.7,271.402 1520.7,277.677L1520.7,395.046L1486.74,395.046ZM1554.99,395.046L1554.99,281.039C1554.99,273.419 1556.22,267.591 1558.69,263.557C1561.15,259.523 1565.64,257.506 1572.14,257.506C1577.52,257.506 1581.66,259.299 1584.58,262.885C1587.49,266.471 1588.95,271.402 1588.95,277.677L1588.95,395.046L1554.99,395.046Z" style="fill:white;"/>
                    </g>
                    <g transform="matrix(1,0,0,1,13.4392,0)">
                        <path d="M985.453,2463.51L985.453,2193.94L1100.55,2193.94L1100.55,2230.29L1024.07,2230.29L1024.07,2312.07L1090.71,2312.07L1090.71,2348.41L1024.07,2348.41L1024.07,2463.51L985.453,2463.51Z" style="fill:white;fill-rule:nonzero;"/>
                    </g>
                </g>
                <g transform="matrix(1.69924,0,0,1.69924,-1783.37,-2322.43)">
                    <g>
                        <g transform="matrix(1,0,0,1,-11.811,200.787)">
                            <circle cx="1488.19" cy="1795.28" r="23.622" style="fill:white;"/>
                        </g>
                        <g transform="matrix(1,0,0,1,35.4331,295.276)">
                            <circle cx="1488.19" cy="1795.28" r="23.622" style="fill:white;"/>
                        </g>
                        <g transform="matrix(1,0,0,1,118.11,259.843)">
                            <circle cx="1488.19" cy="1795.28" r="23.622" style="fill:white;"/>
                        </g>
                        <g transform="matrix(1,0,0,1,82.6772,200.787)">
                            <circle cx="1488.19" cy="1795.28" r="23.622" style="fill:white;"/>
                        </g>
                    </g>
                    <g>
                        <g transform="matrix(1,0,0,1,-11.811,200.787)">
                            <path d="M1582.68,1795.28L1618.11,1854.33" style="fill:none;stroke:white;stroke-width:10.42px;"/>
                        </g>
                        <g transform="matrix(1,0,0,1,-11.811,200.787)">
                            <path d="M1535.43,1889.76L1618.11,1854.33" style="fill:none;stroke:white;stroke-width:10.42px;"/>
                        </g>
                        <g transform="matrix(1,0,0,1,-11.811,200.787)">
                            <path d="M1488.19,1795.28L1618.11,1854.33" style="fill:white;stroke:white;stroke-width:10.42px;"/>
                        </g>
                    </g>
                </g>
            </g>
        </g>
    </g>
</svg>
